<?xml version="1.0" standalone="no"?><!DOCTYPE svg PUBLIC "-//W3C//DTD SVG 1.1//EN" "http://www.w3.org/Graphics/SVG/1.1/DTD/svg11.dtd"><svg class="icon" width="200px" height="200.00px" viewBox="0 0 1024 1024" version="1.1" xmlns="http://www.w3.org/2000/svg"><path d="M800.7424 175.1424c-84.2112 0-96.2432 72.1792-96.2432 96.2432s0 48.128 24.064 48.128 24.064-24.064 24.064-48.128 12.032-48.128 48.128-48.128 48.128 24.064 48.128 48.128c0 120.3072-144.3712 192.4864-216.5504 192.4864h-240.64c-72.1792 0-216.5504-72.1792-216.5504-192.4864 0-24.064 12.032-48.128 48.128-48.128s48.128 24.064 48.128 48.128 0 48.128 24.064 48.128 24.064-24.064 24.064-48.128-12.032-96.2432-96.2432-96.2432c-60.16 0-96.2432 48.128-96.2432 96.2432C127.0144 415.7568 295.4496 512 391.6928 512h240.6144c96.2432 0 264.6784-96.2432 264.6784-240.6144 0-48.128-36.096-96.2432-96.2432-96.2432z" fill="#E6B85C" /><path d="M728.5504 175.1424c0-24.064 0-48.128-24.064-48.128H319.5008c-24.064 0-24.064 24.064-24.064 48.128 0 409.0496 168.4352 360.9216 168.4352 409.0496V632.32c0 48.128-72.1792 24.064-72.1792 72.1792h240.6144c0-48.128-72.1792-24.064-72.1792-72.1792v-48.128c0-48.128 168.4224-0.0128 168.4224-409.0496z" fill="#FFCC66" /><path d="M728.5504 752.6144H295.4496c-13.2992 0-24.064 10.7648-24.064 24.064v96.2432c0 13.2736 10.7648 24.064 24.064 24.064h433.1136c13.2992 0 24.064-10.7904 24.064-24.064v-96.2432c-0.0128-13.2992-10.7776-24.064-24.0768-24.064z" fill="#666666" /><path d="M391.6928 800.7424h240.6144v48.128H391.6928z" fill="#E6E6E6" /><path d="M632.3072 704.4864H391.6928s-72.1792 0-72.1792 48.128h384.9856c-0.0128-48.128-72.192-48.128-72.192-48.128zM463.872 632.3072h96.2432c13.2992 0 24.064-10.7904 24.064-24.064 0-13.2992-10.7648-24.064-24.064-24.064H463.872c-13.2992 0-24.064 10.7648-24.064 24.064 0.0128 13.2864 10.7648 24.064 24.064 24.064z" fill="#E6B85C" /><path d="M560.128 367.6288h-24.064V199.1936H512c-9.1008 0-16.9984 5.0432-21.0944 12.4672l-44.2624 44.2496c-8.9984 9.024-8.9984 23.6416 0 32.6656 9.024 9.024 23.6672 9.024 32.6912 0l8.6016-8.6016v87.6544h-24.064c-13.2992 0-24.064 10.7648-24.064 24.064 0 13.2736 10.7648 24.064 24.064 24.064h96.2432c13.2736 0 24.064-10.7904 24.064-24.064 0-13.2992-10.7776-24.064-24.0512-24.064z" fill="#CCA352" /></svg>